<svg xmlns="http://www.w3.org/2000/svg" viewBox="0 0 2221.72 2844"><g id="Layer_2" data-name="Layer 2"><g id="Layer_1-2" data-name="Layer 1"><path d="M1385.2,2263.94v8.36a26,26,0,0,0,.34-4.16A26.45,26.45,0,0,0,1385.2,2263.94Zm0,0v8.36a26,26,0,0,0,.34-4.16A26.45,26.45,0,0,0,1385.2,2263.94Zm0,0v8.36a26,26,0,0,0,.34-4.16A26.45,26.45,0,0,0,1385.2,2263.94Zm0,0v8.36a26,26,0,0,0,.34-4.16A26.45,26.45,0,0,0,1385.2,2263.94ZM962.38,1906.16a89.31,89.31,0,0,0-47.65-47.66,89.82,89.82,0,0,0-69.86,0,92.09,92.09,0,0,0-28.5,19.16,89.67,89.67,0,0,0-19.25,28.5A87.08,87.08,0,0,0,790,1941a85.71,85.71,0,0,0,7.08,34.68,90.76,90.76,0,0,0,47.75,47.66,89.82,89.82,0,0,0,69.86,0,89.7,89.7,0,0,0,28.49-19.26,92.17,92.17,0,0,0,19.16-28.4,85.71,85.71,0,0,0,7.08-34.68A87.08,87.08,0,0,0,962.38,1906.16Zm422.82,357.78v8.36a26,26,0,0,0,.34-4.16A26.45,26.45,0,0,0,1385.2,2263.94Zm0,0v8.36a26,26,0,0,0,.34-4.16A26.45,26.45,0,0,0,1385.2,2263.94ZM962.38,1906.16a89.31,89.31,0,0,0-47.65-47.66,89.82,89.82,0,0,0-69.86,0,92.09,92.09,0,0,0-28.5,19.16,89.67,89.67,0,0,0-19.25,28.5A87.08,87.08,0,0,0,790,1941a85.71,85.71,0,0,0,7.08,34.68,90.76,90.76,0,0,0,47.75,47.66,89.82,89.82,0,0,0,69.86,0,89.7,89.7,0,0,0,28.49-19.26,92.17,92.17,0,0,0,19.16-28.4,85.71,85.71,0,0,0,7.08-34.68A87.08,87.08,0,0,0,962.38,1906.16Zm0,0a89.31,89.31,0,0,0-47.65-47.66,89.82,89.82,0,0,0-69.86,0,92.09,92.09,0,0,0-28.5,19.16,89.67,89.67,0,0,0-19.25,28.5A87.08,87.08,0,0,0,790,1941a85.71,85.71,0,0,0,7.08,34.68,90.76,90.76,0,0,0,47.75,47.66,89.82,89.82,0,0,0,69.86,0,89.7,89.7,0,0,0,28.49-19.26,92.17,92.17,0,0,0,19.16-28.4,85.71,85.71,0,0,0,7.08-34.68A87.08,87.08,0,0,0,962.38,1906.16Zm422.82,357.78v8.36a26,26,0,0,0,.34-4.16A26.45,26.45,0,0,0,1385.2,2263.94Zm0,0v8.36a26,26,0,0,0,.34-4.16A26.45,26.45,0,0,0,1385.2,2263.94ZM962.38,1906.16a89.31,89.31,0,0,0-47.65-47.66,89.82,89.82,0,0,0-69.86,0,92.09,92.09,0,0,0-28.5,19.16,89.67,89.67,0,0,0-19.25,28.5A87.08,87.08,0,0,0,790,1941a85.71,85.71,0,0,0,7.08,34.68,90.76,90.76,0,0,0,47.75,47.66,89.82,89.82,0,0,0,69.86,0,89.7,89.7,0,0,0,28.49-19.26,92.17,92.17,0,0,0,19.16-28.4,85.71,85.71,0,0,0,7.08-34.68A87.08,87.08,0,0,0,962.38,1906.16Zm0,0a89.31,89.31,0,0,0-47.65-47.66,89.82,89.82,0,0,0-69.86,0,92.09,92.09,0,0,0-28.5,19.16,89.67,89.67,0,0,0-19.25,28.5A87.08,87.08,0,0,0,790,1941a85.71,85.71,0,0,0,7.08,34.68,90.76,90.76,0,0,0,47.75,47.66,89.82,89.82,0,0,0,69.86,0,89.7,89.7,0,0,0,28.49-19.26,92.17,92.17,0,0,0,19.16-28.4,85.71,85.71,0,0,0,7.08-34.68A87.08,87.08,0,0,0,962.38,1906.16Zm422.82,357.78v8.36a26,26,0,0,0,.34-4.16A26.45,26.45,0,0,0,1385.2,2263.94Zm0,0v8.36a26,26,0,0,0,.34-4.16A26.45,26.45,0,0,0,1385.2,2263.94ZM962.38,1906.16a89.31,89.31,0,0,0-47.65-47.66,89.82,89.82,0,0,0-69.86,0,92.09,92.09,0,0,0-28.5,19.16,89.67,89.67,0,0,0-19.25,28.5A87.08,87.08,0,0,0,790,1941a85.71,85.71,0,0,0,7.08,34.68,90.76,90.76,0,0,0,47.75,47.66,89.82,89.82,0,0,0,69.86,0,89.7,89.7,0,0,0,28.49-19.26,92.17,92.17,0,0,0,19.16-28.4,85.71,85.71,0,0,0,7.08-34.68A87.08,87.08,0,0,0,962.38,1906.16Zm1250.36-300.81c-63.23-27.57-108-95.45-108-175s44.79-147.44,108-175h7.91c4.2-87.65-5-365-9.74-395.33-33-211.3-190.62-338.65-373.73-418.27-142.29-61.87-301.11-77.76-439.41-150C1275.82,228,1179.88,119.87,1110.86,0c-69,119.87-165,228-286.92,291.72-138.29,72.25-297.11,88.14-439.4,150C201.43,521.35,43.79,648.7,10.81,860c-4.73,30.3-13.94,307.68-9.74,395.33h16.2c63.23,27.57,108,95.46,108,175s-44.8,147.44-108,175H0v605s4.29,67,62.63,127.48l25.93,23.76,887.56,450.21a297.84,297.84,0,0,0,269.48,0l887.56-450.21,25.93-23.76c58.34-60.5,62.63-127.48,62.63-127.48v-605Zm-959-684.71L1589.38,928a34.1,34.1,0,0,1,11.52-21.27h.07C1612.5,896.23,1628.2,893,1628.2,893l154.42,6.07v6.08l-121.28,5.27c-1.81,0-3.16,1.92-3.16,4.15v1.32c0,2.33,1.35,4.15,3.08,4.25l121.36,6.59v6.07l-123.17,5.88c-1.9.1-3.32,2.13-3.16,4.46l.08,2c.16,2.13,1.5,3.85,3.16,4L1779.78,955v6.79l-120.1,5.36c-1.81.11-3.23,1.93-3.23,4.16s1.34,4.05,3.08,4.25l120.25,11.85-145.27,4.06c-16.57,1.82-27.06-4.87-33.54-12.77h-.07a49,49,0,0,1-9.55-19l-337,8.81c-17.68-3.75-22.65-14.79-24-21.07v-7.49C1234.6,921.15,1253.77,920.64,1253.77,920.64Zm273.36,740.85q2.05,11.07,8.84,16.38t42.12,7v34.88q-57.15-3.83-96.31-3.82-41.83,0-96.31,3.82v-34.88q35.34-1.68,42-6.8t9-17q3.24-18.28,3.24-110.18V1296.11q0-104.22-.89-116.55h-42.11a463.81,463.81,0,0,0-56,3q-9.72,1.28-11.19,3.4-2.07,2.55-3.54,14.89a602.56,602.56,0,0,0-4.41,66.78h-24.45q-1.18-87.19-1.47-98.26-.89-18.72-3-40.41l2.65-4.25q13.85,2.13,29.45,3,25.34,1.27,97.49,1.27h119q74.22,0,99.25-1.27,13.55-.86,27.39-3l2.95,4.25q-2.65,25.95-3.24,45.52-.3,3.4-1.18,93.15H1642q-.6-33.18-3.83-63.38-1.77-15.32-3.83-18.29-1.77-2.13-9.42-3-24.15-3.39-58-3.4h-42.12q-.87,14.89-.88,116.55v254.78Q1523.89,1642.78,1527.13,1661.49Zm-43.2,323.76a27.85,27.85,0,0,0-25.94-17.09h-56.4a81.15,81.15,0,0,1-32.82-6.69,85.58,85.58,0,0,1-45-45.09,84.21,84.21,0,0,1,0-65.74,85.92,85.92,0,0,1,45-45,81.31,81.31,0,0,1,32.82-6.68H1530.9v56.4H1401.59a27.85,27.85,0,0,0-28.1,28.1,28.67,28.67,0,0,0,2.16,11.1,27.38,27.38,0,0,0,6,9,27.85,27.85,0,0,0,19.94,8.16H1458a83,83,0,0,1,32.92,6.58,84.11,84.11,0,0,1,45,45,85.39,85.39,0,0,1,0,65.74,85.07,85.07,0,0,1-18.08,26.82,86.17,86.17,0,0,1-26.92,18.18,82,82,0,0,1-32.92,6.68H1332.81v-56.4H1458a28.27,28.27,0,0,0,25.94-39.11Zm-459.55-250.6q-66.27,0-113.84-34.66t-74.66-102.3q-27.09-67.64-27.09-168.45,0-77.84,16.34-135.68t46.68-98.26l.57-.72,19.25,100c3.17,17.4,6.85,33.36,10.88,48a614.19,614.19,0,0,0-3,61.56q0,99.12,18.85,164t48.3,91.67a100.09,100.09,0,0,0,42.94,23.56c-9.1-22.24-17.58-52.18-24.51-92.38,0,0,74.06,12.5,96.31,84.69a109.31,109.31,0,0,0,21.18-14.59c1.08-.94,2.14-1.91,3.19-2.93-6.47-72.62,48.92-125.56,48.92-125.56q1.21,4.44,2.33,8.75,11.45-32,7.37-79.45c.48-11.25.78-22.77.78-34.76q0-59.55-9-108.89t-25.76-84a179.32,179.32,0,0,0-21.87-35.07l-16.86-78.42a200.81,200.81,0,0,1,42.85,15.45q32.38,16.58,57.29,47.85t37.84,64a357.31,357.31,0,0,1,19.59,71.89q6.62,39.13,6.62,86.34,0,80-19.14,148.46-14.14,51-41.38,90.6t-62,60.82Q1085.64,1734.65,1024.38,1734.65Zm1.08,206.39a142.38,142.38,0,0,1-5.2,38.61,149,149,0,0,1-14.64,34.79,144.54,144.54,0,0,1-22.8,29.57,148,148,0,0,1-29.48,22.89,145.47,145.47,0,0,1-112.11,14.74,146.75,146.75,0,0,1-102-102,146.08,146.08,0,0,1,0-77.33A144.26,144.26,0,0,1,754,1867.54a147.94,147.94,0,0,1,22.9-29.48,144.3,144.3,0,0,1,29.57-22.79,148.55,148.55,0,0,1,34.78-14.64,146.08,146.08,0,0,1,77.33,0,145.46,145.46,0,0,1,101.7,101.69A143.5,143.5,0,0,1,1025.46,1941Zm35.33-839.11,27.76,129c10.36,39.5,14.63,70.6,14.89,95a165.28,165.28,0,0,1-2.89,36c-9.84,49.34-40.94,53-40.94,53-10.95-19.62-17.38-38.06-20.6-55.18a144.21,144.21,0,0,1-2.36-33.72c2.69-59.11,41.46-95.46,41.46-95.46Zm6.3-116.9V912.64h72.39V985Zm54.57,395.15c52,183-27.6,190-27.6,190C1027.34,1441.58,1121.66,1380.18,1121.66,1380.18ZM1053,1586.24S981.28,1629,950.55,1439C950.55,1439,1057.45,1434.28,1053,1586.24Zm-106-601,31.74,113.28s87.12,98.73,33.9,185c0,0-76.79-2-48.13-181.07Zm50.2,347.2a129.57,129.57,0,0,1,15.28,34.18c5.06,17.58,7.61,38.84,6.1,64.43,0,0-29.19,16.4-58.59-22.38-8.72-11.54-17.51-28-25.52-51.24-6.23-18.1-12-40.34-17-67.64L895,1173.31l31.3,109.77S969.73,1290,997.16,1332.48ZM1059.27,1799h56.2v169.2a54.27,54.27,0,0,0,4.42,21.81,56.62,56.62,0,0,0,30.07,30,56.51,56.51,0,0,0,43.82,0,56.62,56.62,0,0,0,30.07-30,54.44,54.44,0,0,0,4.42-21.81V1799h56.4v169.2a109.78,109.78,0,0,1-8.85,43.92,112.53,112.53,0,0,1-24.17,35.76,114.69,114.69,0,0,1-35.86,24.08,113.52,113.52,0,0,1-87.84,0,112.43,112.43,0,0,1-59.84-59.84,109.77,109.77,0,0,1-8.84-43.92ZM1212.49,627.64c-12-22.4,2.11,2.57,12.2,18.6s15.77,27.8,15.52,54-7.1,56.93-52.32,97.11-45.31,47.3-51.49,58.25-7.94-23.05,3.06-52.48,45.71-55.31,60.64-83.15S1224.46,650,1212.49,627.64Zm-50.66-50.92c-7.76-15.77,7.05,7.39,13.55,25.09s6.7,23,6.6,39.41-5.4,35.45-25.68,65.14c-10.14,14.85-20.4,29.25-35.63,47.66s-26.84,48.82-17.26,63.83-40.52-28.64-16-72.87,38.85-57.78,52.14-78.52,19.32-33.4,23.63-50.42S1165.71,584.61,1161.83,576.72ZM980,675.77c70-120,127.1-191.25,89-238.23s79.57,81.75,65.56,136.27-69.85,94.94-93.07,166.35,50.14,118.43,37.66,117.26S909.92,795.76,980,675.77ZM446.36,932.28c2.81-8.75,10.06-16.34,17-22.1,9.1-7.55,20.07-12.6,31.29-16.11,20.41-6.39,40.46-6.42,61.46-7.31,67.12-2.84,77.42,41.55,77.42,41.55l345.19-6.39c20.25,2.13,21.61,20.24,21.61,20.24-2.2,14.91-21.25,17.4-21.25,17.4l-345.55-5.33c-18.82,41.55-80.26,38-80.26,38-29.2,1.69-61.8-1.56-85.54-20.37a67.36,67.36,0,0,1-18.55-22.55C446.41,943.76,444.35,938.53,446.36,932.28Zm-80.83,787.48v-37.43q33.57-1.69,39.76-4.68a9.14,9.14,0,0,0,5.16-4.25q1.6-3,2.5-11.91,2.06-16.59,2.94-50.19l2.36-124.21v-157.8l-1.18-89.75q-.6-53.18-3.54-63.81a15.41,15.41,0,0,0-4.41-7.23q-7.08-5.1-43.59-8.51v-34.88q6.77,0,47.13,1.71,19.71.86,56,.85,30.92,0,53-1.71,36.51-2.12,60.38-2.12,46.23,0,69.21,9.57t39.17,39.77q16.2,30.21,16.2,73.59,0,51.46-22.09,93.58t-68,66.77q7.37,19.14,16.79,39.14t11,24.24c1.08,2.84,2.22,5.53,3.39,8.09l45.65,99.11q18.27,39.55,19.74,42.53,22.09,42.54,27.09,50.19c3.34,5.1,6.58,8.66,9.72,10.64s9.32,3.12,18.56,3.4v35.3q-45.36-1.68-65.68-1.7-23.57,0-46.83,1.7-1.48-9.35-7.07-24.24l-63-150.15q-27.11-64.65-45.94-101.66-9.43-18.72-18.26-28.08l3.24-14q35.34,1.7,53.3-10.42t30.34-43.39q12.38-31.26,12.37-70,0-39.13-13-65.08t-32.1-36.16q-12.37-6.37-44.18-6.38a117.27,117.27,0,0,0-28,3.4q-.89,15.33-1.77,68.91-1.77,120.38-1.77,160.79,0,63.81.89,135.26,1.17,87.63,1.77,99.54.89,23.82,3.24,31a16.6,16.6,0,0,0,3.82,6.17q2.66,2.78,8.54,4.47t34.17,2.55v37.43q-50.37-2.55-101.9-2.55Q404.71,1717.21,365.53,1719.76Zm162.56,248.4v112.6h-56.4V1799h56.4v112.8h112.6V1799h56.4v281.8h-56.4v-112.6Zm174.64,338.68c-14.75,2.14-28.94-.42-41.77-8.42-8.85-5.52-16.17-14-18.73-24.12-6.46-25.62,24.66-48.53,48.08-47.1,27.59,1.69,75,22.25,135,28.82a12.16,12.16,0,0,1-.1,24.16c-17.95,2-33.48,4.16-36.9,4.86C759.64,2290.89,731.48,2302.66,702.73,2306.84Zm145.7,49.46c-15.75,0-29.07-25.76-33.52-61.24q5.51-.67,11.76-1.38a25.75,25.75,0,0,0,.08-51.17c-3.9-.43-7.74-.93-11.53-1.47,4.71-34.37,17.78-59.14,33.21-59.14,19.39,0,35.11,39,35.11,87.2S867.82,2356.3,848.43,2356.3Zm536.77,0v0H874.11c15.18-18.42,23-52.94,23-87.2s-7.84-68.79-23-87.2H1385.2v0c19,1,34.31,39.67,34.31,87.17S1404.22,2355.23,1385.2,2356.27Zm193.74-82c-2.56,10.12-9.88,18.6-18.73,24.12-12.83,8-27,10.56-41.77,8.42-28.75-4.18-56.91-16-85.54-21.8l-.41-.07c.38-5.26.61-10.56.61-15.87,0-6.32-.27-12.64-.8-18.87,42.76-8.69,76.83-21.7,98.56-23C1554.28,2225.77,1585.4,2248.68,1578.94,2274.3Zm193.67-418.94H1635.84v56.4h92.55v56.4h-92.55v56.2h136.77v56.4H1579.44V1799h193.17Zm124.74-693.24q-29.74,1.28-35.34,3.19t-8,4.68a15.44,15.44,0,0,0-3.25,7q-2.05,7.23-2.94,27.65-.58,11.05-.88,41.68-1.18,104.64-1.18,112.72v171.42l.88,77.84q0,43.82,2.94,57,1.18,6,4,9.15t8.84,5.1q6,1.92,34.9,2.76v37.43q-48-2.55-102.5-2.55-47.41,0-84.52,2.55v-37.43q30.63-1.69,35.34-3c4.12-1.13,6.92-2.7,8.39-4.68a15.14,15.14,0,0,0,2.8-6.81q.89-5.1,2.36-40,2.35-51,2.36-94.43v-177.8q0-84.65-.59-108.89-1.48-54-3.54-67.64a22.41,22.41,0,0,0-2.8-8.5c-1.27-2-3.63-3.62-7.07-4.9s-15.85-2.47-37.25-3.61v-37.43q37.1,2.55,85.11,2.55,53.89,0,101.91-2.55ZM1385.2,2272.3a26,26,0,0,0,.34-4.16,26.45,26.45,0,0,0-.34-4.2Zm-442-394.64a90.43,90.43,0,0,0-28.49-19.16,89.82,89.82,0,0,0-69.86,0,92.09,92.09,0,0,0-28.5,19.16,89.67,89.67,0,0,0-19.25,28.5A87.08,87.08,0,0,0,790,1941a85.71,85.71,0,0,0,7.08,34.68,90.76,90.76,0,0,0,47.75,47.66,89.82,89.82,0,0,0,69.86,0,89.7,89.7,0,0,0,28.49-19.26,92.17,92.17,0,0,0,19.16-28.4,85.71,85.71,0,0,0,7.08-34.68,87.08,87.08,0,0,0-7.08-34.88A90.42,90.42,0,0,0,943.22,1877.66Zm19.16,28.5a89.31,89.31,0,0,0-47.65-47.66,89.82,89.82,0,0,0-69.86,0,92.09,92.09,0,0,0-28.5,19.16,89.67,89.67,0,0,0-19.25,28.5A87.08,87.08,0,0,0,790,1941a85.71,85.71,0,0,0,7.08,34.68,90.76,90.76,0,0,0,47.75,47.66,89.82,89.82,0,0,0,69.86,0,89.7,89.7,0,0,0,28.49-19.26,92.17,92.17,0,0,0,19.16-28.4,85.71,85.71,0,0,0,7.08-34.68A87.08,87.08,0,0,0,962.38,1906.16Zm422.82,357.78v8.36a26,26,0,0,0,.34-4.16A26.45,26.45,0,0,0,1385.2,2263.94Zm0,0v8.36a26,26,0,0,0,.34-4.16A26.45,26.45,0,0,0,1385.2,2263.94ZM962.38,1906.16a89.31,89.31,0,0,0-47.65-47.66,89.82,89.82,0,0,0-69.86,0,92.09,92.09,0,0,0-28.5,19.16,89.67,89.67,0,0,0-19.25,28.5A87.08,87.08,0,0,0,790,1941a85.71,85.71,0,0,0,7.08,34.68,90.76,90.76,0,0,0,47.75,47.66,89.82,89.82,0,0,0,69.86,0,89.7,89.7,0,0,0,28.49-19.26,92.17,92.17,0,0,0,19.16-28.4,85.71,85.71,0,0,0,7.08-34.68A87.08,87.08,0,0,0,962.38,1906.16Zm0,0a89.31,89.31,0,0,0-47.65-47.66,89.82,89.82,0,0,0-69.86,0,92.09,92.09,0,0,0-28.5,19.16,89.67,89.67,0,0,0-19.25,28.5A87.08,87.08,0,0,0,790,1941a85.71,85.71,0,0,0,7.08,34.68,90.76,90.76,0,0,0,47.75,47.66,89.82,89.82,0,0,0,69.86,0,89.7,89.7,0,0,0,28.49-19.26,92.17,92.17,0,0,0,19.16-28.4,85.71,85.71,0,0,0,7.08-34.68A87.08,87.08,0,0,0,962.38,1906.16Zm422.82,357.78v8.36a26,26,0,0,0,.34-4.16A26.45,26.45,0,0,0,1385.2,2263.94Zm0,0v8.36a26,26,0,0,0,.34-4.16A26.45,26.45,0,0,0,1385.2,2263.94ZM962.38,1906.16a89.31,89.31,0,0,0-47.65-47.66,89.82,89.82,0,0,0-69.86,0,92.09,92.09,0,0,0-28.5,19.16,89.67,89.67,0,0,0-19.25,28.5A87.08,87.08,0,0,0,790,1941a85.71,85.71,0,0,0,7.08,34.68,90.76,90.76,0,0,0,47.75,47.66,89.82,89.82,0,0,0,69.86,0,89.7,89.7,0,0,0,28.49-19.26,92.17,92.17,0,0,0,19.16-28.4,85.71,85.71,0,0,0,7.08-34.68A87.08,87.08,0,0,0,962.38,1906.16Zm422.82,357.78v8.36a26,26,0,0,0,.34-4.16A26.45,26.45,0,0,0,1385.2,2263.94Zm0,0v8.36a26,26,0,0,0,.34-4.16A26.45,26.45,0,0,0,1385.2,2263.94Zm0,0v8.36a26,26,0,0,0,.34-4.16A26.45,26.45,0,0,0,1385.2,2263.94Zm0,0v8.36a26,26,0,0,0,.34-4.16A26.45,26.45,0,0,0,1385.2,2263.94Zm0,0v8.36a26,26,0,0,0,.34-4.16A26.45,26.45,0,0,0,1385.2,2263.94Zm0,0v8.36a26,26,0,0,0,.34-4.16A26.45,26.45,0,0,0,1385.2,2263.94Z"/></g></g></svg>