<svg xmlns="http://www.w3.org/2000/svg" viewBox="0 0 2253.73 2892.07"><defs><style>.cls-1{fill:none;stroke:#fff;stroke-miterlimit:10;stroke-width:32px;}.cls-2{font-size:402.46px;font-family:Righteous-Regular, Righteous;}.cls-2,.cls-3{fill:#f9f9fc;}.cls-4{fill:#fff;}</style></defs><title>Asset 3</title><g id="Layer_2" data-name="Layer 2"><g id="Layer_1-2" data-name="Layer 1"><path class="cls-1" d="M2228.74,1637.42c-63.23-27.57-108-95.46-108-175s44.8-147.44,108-175h7.92c4.19-87.65-5-365-9.74-395.33-33-211.3-190.62-338.65-373.74-418.27-142.28-61.87-301.11-77.76-439.4-150-122-63.71-217.9-171.85-286.92-291.72-69,119.87-165,228-286.91,291.72-138.3,72.25-297.12,88.14-439.4,150-183.12,79.62-340.76,207-373.73,418.27-4.73,30.3-13.93,307.68-9.74,395.33h16.2c63.23,27.57,108,95.46,108,175s-44.8,147.44-108,175H16v605s4.3,67,62.63,127.48l25.93,23.77,887.57,450.21a297.85,297.85,0,0,0,269.48,0l887.57-450.21,25.93-23.77c58.34-60.5,62.63-127.48,62.63-127.48v-605Z"/><text class="cls-2" transform="translate(461.56 2112.83)">HOUSE</text><path class="cls-3" d="M852,2300.2a12.14,12.14,0,0,0-10.71-12.12c-59.94-6.57-107.37-27.13-135-28.82-23.42-1.43-54.55,21.48-48.08,47.1,2.55,10.12,9.88,18.6,18.73,24.12,12.82,8,27,10.56,41.77,8.42,28.75-4.17,56.91-15.95,85.54-21.79,3.42-.7,18.94-2.85,36.9-4.86a12.13,12.13,0,0,0,10.8-12Z"/><path class="cls-3" d="M864.43,2214c-15.43,0-28.5,24.76-33.21,59.13,3.8.54,7.64,1,11.53,1.47a25.75,25.75,0,0,1-.08,51.18q-6.25.7-11.76,1.38c4.45,35.48,17.77,61.23,33.52,61.23,19.39,0,35.11-39,35.11-87.2S883.82,2214,864.43,2214Z"/><path class="cls-3" d="M1546.86,2259.27c-21.72,1.33-55.8,14.35-98.56,23,.53,6.23.8,12.55.8,18.87,0,5.31-.23,10.61-.6,15.87l.4.07c28.63,5.85,56.8,17.62,85.54,21.79,14.75,2.14,28.94-.42,41.77-8.42,8.85-5.52,16.18-14,18.73-24.12C1601.41,2280.75,1570.28,2257.83,1546.86,2259.27Z"/><path class="cls-3" d="M1400.41,2214c-15.43,0-28.5,24.76-33.21,59.13,3.8.54,7.64,1,11.53,1.47a25.75,25.75,0,0,1-.08,51.18q-6.25.7-11.76,1.38c4.45,35.48,17.77,61.23,33.52,61.23,19.39,0,35.11-39,35.11-87.2S1419.8,2214,1400.41,2214Z"/><path class="cls-3" d="M890.12,2214c15.18,18.41,23,52.94,23,87.2s-7.84,68.79-23,87.2H1401.2V2214Z"/><path class="cls-3" d="M1724,771"/><path class="cls-3" d="M1532.32,726.74"/><path class="cls-3" d="M1561.8,726.74"/><g id="svg_24" data-name="svg 24"><path class="cls-3" d="M1084.94,469.61c38.12,47-18.93,118.24-89,238.23s86.63,180.48,99.12,181.65-60.87-45.85-37.66-117.26,79.06-111.84,93.07-166.35S1046.81,422.63,1084.94,469.61Z"/></g><g id="svg_25" data-name="svg 25"><path class="cls-3" d="M1177.84,608.79c3.88,7.89,5.69,22.31,1.39,39.32s-10.35,29.68-23.63,50.42S1128,732.81,1103.46,777s25.54,87.88,16,72.87,2-45.43,17.25-63.84,25.5-32.81,35.64-47.65c20.28-29.69,25.57-48.68,25.67-65.14s-.1-21.71-6.6-39.41S1170.08,593,1177.84,608.79Z"/></g><g id="svg_26" data-name="svg 26"><path class="cls-3" d="M1152.4,887.68c-6.18,10.95-7.94-23,3.06-52.48s45.72-55.32,60.65-83.16,24.36-69.94,12.39-92.34,2.11,2.58,12.2,18.6,15.77,27.8,15.51,54-7.1,56.93-52.31,97.11S1158.58,876.73,1152.4,887.68Z"/></g><path class="cls-3" d="M1617,1010.75h-.08a49,49,0,0,1-9.55-19l-337,8.81c-17.68-3.75-22.65-14.79-24-21.07V972c4.26-18.74,23.44-19.25,23.44-19.25l335.6,7.39a34.09,34.09,0,0,1,11.52-21.27h.08c11.52-10.53,27.22-13.78,27.22-13.78l154.43,6.08v6.08l-121.28,5.27c-1.81,0-3.16,1.92-3.16,4.15v1.32c0,2.33,1.34,4.15,3.08,4.25l121.36,6.58v6.08l-123.18,5.88c-1.89.1-3.31,2.13-3.16,4.46l.08,2c.16,2.13,1.5,3.85,3.16,4L1795.79,987v6.79l-120.1,5.37c-1.82.1-3.24,1.92-3.24,4.15s1.34,4.05,3.08,4.25l120.26,11.85-145.27,4.05C1633.94,1025.34,1623.45,1018.65,1617,1010.75Z"/><path class="cls-3" d="M1016.32,974.23S1015,956.11,994.72,954l-345.2,6.39S639.22,916,572.1,918.82c-21,.89-41,.93-61.46,7.31-11.22,3.51-22.19,8.56-31.29,16.12-6.93,5.75-14.19,13.34-17,22.1-2,6.25,0,11.47,2.81,17a67.33,67.33,0,0,0,18.56,22.55c23.73,18.81,56.34,22.06,85.53,20.37,0,0,61.44,3.55,80.26-38l345.55,5.33S1014.13,989.14,1016.32,974.23Z"/><rect class="cls-3" x="1083.1" y="944.71" width="72.39" height="72.39"/><path class="cls-3" d="M381.53,1192.06v-34.88q6.78,0,47.13,1.7,19.72.86,56,.85,30.93,0,53-1.7,36.52-2.12,60.38-2.13,46.24,0,69.21,9.57t39.17,39.77q16.2,30.21,16.2,73.59,0,51.47-22.09,93.58t-68,66.78q7.36,19.14,16.79,39.14t11,24.24q1.61,4.26,3.39,8.08l45.65,99.11q18.26,39.56,19.73,42.53,22.09,42.54,27.1,50.19t9.72,10.64q4.71,3,18.55,3.4v35.31q-45.35-1.69-65.68-1.7-23.56,0-46.83,1.7-1.48-9.35-7.07-24.24l-63-150.15q-27.1-64.65-45.94-101.66-9.43-18.71-18.26-28.07l3.24-14q35.34,1.71,53.31-10.42t30.34-43.39q12.37-31.26,12.37-70,0-39.13-13-65.08t-32.11-36.16q-12.37-6.38-44.18-6.38a116.85,116.85,0,0,0-28,3.4q-.88,15.32-1.77,68.91-1.77,120.38-1.77,160.79,0,63.8.88,135.26,1.17,87.63,1.77,99.54.88,23.82,3.24,31a16.68,16.68,0,0,0,3.82,6.17q2.65,2.78,8.54,4.47t34.17,2.55v37.43q-50.37-2.55-101.9-2.55-45.95,0-85.12,2.55V1714.4q33.58-1.69,39.76-4.68a9.14,9.14,0,0,0,5.16-4.25q1.61-3,2.51-11.91,2.06-16.59,2.94-50.19l2.36-124.2V1361.35l-1.18-89.75q-.6-53.17-3.54-63.8a15.44,15.44,0,0,0-4.41-7.23Q418.05,1195.46,381.53,1192.06Z"/><path class="cls-3" d="M1401.47,1751.83V1717q35.34-1.69,42-6.81t9-17q3.23-18.29,3.24-110.17V1328.17q0-104.21-.88-116.55h-42.11a463.73,463.73,0,0,0-56,3q-9.73,1.28-11.19,3.4-2.07,2.55-3.54,14.89a601.21,601.21,0,0,0-4.41,66.78h-24.45q-1.18-87.19-1.47-98.26-.88-18.72-2.94-40.41l2.65-4.26q13.84,2.14,29.45,3,25.33,1.28,97.49,1.28h119q74.21,0,99.25-1.28,13.54-.85,27.39-3l2.95,4.26q-2.65,25.95-3.24,45.51-.3,3.41-1.18,93.16H1658q-.6-33.18-3.83-63.38-1.76-15.32-3.82-18.29-1.77-2.12-9.42-3-24.15-3.4-58-3.41h-42.12q-.88,14.9-.88,116.55V1583q0,91.88,3.24,110.59,2.06,11.07,8.84,16.38t42.12,7v34.88q-57.14-3.83-96.31-3.83Q1456,1748,1401.47,1751.83Z"/><path class="cls-3" d="M1913.35,1156.75v37.43q-29.74,1.28-35.34,3.19t-8,4.68a15.43,15.43,0,0,0-3.24,7q-2.06,7.24-2.94,27.65-.6,11.06-.88,41.69-1.18,104.64-1.18,112.72v171.42l.88,77.84q0,43.82,2.94,57,1.18,6,4,9.15t8.84,5.1q6,1.92,34.9,2.76v37.43q-48-2.55-102.49-2.55-47.42,0-84.53,2.55V1714.4q30.63-1.69,35.34-3,6.19-1.69,8.39-4.68a15.14,15.14,0,0,0,2.8-6.81q.88-5.11,2.36-40,2.35-51,2.36-94.43v-177.8q0-84.64-.59-108.89-1.48-54-3.54-67.64a22.55,22.55,0,0,0-2.8-8.5q-1.91-3-7.07-4.89t-37.26-3.61v-37.43q37.11,2.55,85.12,2.55Q1865.34,1159.31,1913.35,1156.75Z"/><path class="cls-4" d="M1103.63,1751.43a144.53,144.53,0,0,1-18.7,1.18,139.35,139.35,0,0,1-43.5-6.5c-14.89-22.44-29.52-60.23-40.35-123.08C1001.09,1623,1103.37,1640.29,1103.63,1751.43Z"/><path class="cls-4" d="M1186.43,1697.83q-14.37,24.6-35,37.13a109,109,0,0,1-14.3,7.35c-49.8-98,33.59-177.67,33.59-177.67C1187.74,1627.11,1190.43,1669.36,1186.43,1697.83Z"/><path class="cls-4" d="M1069,1618.3s-71.67,42.76-102.4-147.22C966.55,1471.08,1073.45,1466.35,1069,1618.3Z"/><path class="cls-4" d="M1034.55,1463.15s-29.19,16.4-58.59-22.37c-8.72-11.55-17.52-28-25.52-51.24-6.23-18.11-12-40.35-17-67.64L911,1205.38l31.29,109.76s43.43,6.89,70.86,49.4a129.58,129.58,0,0,1,15.28,34.18C1033.5,1416.31,1036.06,1437.57,1034.55,1463.15Z"/><path class="cls-4" d="M1110.07,1602.19s79.62-7,27.6-189.95C1137.67,1412.24,1043.34,1473.65,1110.07,1602.19Z"/><path class="cls-4" d="M1119.44,1358a165.52,165.52,0,0,1-2.89,36c-9.84,49.34-40.94,52.95-40.94,52.95-11-19.62-17.39-38.05-20.6-55.18a144,144,0,0,1-2.36-33.72c2.69-59.11,41.46-95.46,41.46-95.46L1076.8,1134l27.75,129C1114.92,1302.55,1119.18,1333.64,1119.44,1358Z"/><path class="cls-4" d="M1028.6,1315.68s-76.79-2-48.13-181.07L963,1017.35l31.74,113.28S1081.82,1229.35,1028.6,1315.68Z"/><path class="cls-3" d="M1265.25,1352a357.69,357.69,0,0,0-19.59-71.89q-13-32.75-37.85-64t-57.28-47.85a201.17,201.17,0,0,0-42.86-15.45l16.87,78.42a179.24,179.24,0,0,1,21.86,35.06q16.79,34.68,25.77,84t9,108.89c0,12-.3,23.52-.77,34.76q4.45,51.32-9.37,84.62c-1.91,9.8-4,19.26-6.49,28.22q-16.65,60.83-45.94,86.35t-66.41,25.52q-40.06,0-69.51-26.8t-48.3-91.67q-18.85-64.86-18.85-164a613.86,613.86,0,0,1,3-61.56c-4-14.68-7.71-30.64-10.88-48l-19.25-100c-.19.25-.38.47-.56.72q-30.34,40.42-46.68,98.26t-16.34,135.69q0,100.81,27.1,168.44t74.66,102.3q47.56,34.66,113.83,34.67,61.26,0,109-28.5,34.74-21.26,62-60.83t41.38-90.6q19.14-68.48,19.14-148.45Q1271.88,1391.13,1265.25,1352Z"/></g></g></svg>