<?xml version="1.0" encoding="iso-8859-1"?>
<!-- Generator: Adobe Illustrator 19.0.0, SVG Export Plug-In . SVG Version: 6.00 Build 0)  -->
<svg version="1.1" id="Capa_1" xmlns="http://www.w3.org/2000/svg" xmlns:xlink="http://www.w3.org/1999/xlink" x="0px" y="0px"
	 viewBox="0 0 512 512" style="enable-background:new 0 0 512 512;" xml:space="preserve">
<g>
	<g>
		<path d="M457.213,216L314.976,73.763C315.64,71.285,316,68.684,316,66c0-16.542-13.458-30-30-30s-30,13.458-30,30s13.458,30,30,30
			c2.684,0,5.285-0.36,7.763-1.024L414.787,216H97.213L218.237,94.976C220.715,95.64,223.316,96,226,96c16.542,0,30-13.458,30-30
			s-13.458-30-30-30s-30,13.458-30,30c0,2.684,0.36,5.285,1.024,7.763L54.787,216H0v30h28.411l45.373,173.931
			C82.396,452.944,112.238,476,146.355,476h219.289c34.117,0,63.96-23.056,72.571-56.068L483.589,246H512v-30H457.213z M181,391h-30
			v-90h30V391z M241,391h-30v-90h30V391z M301,391h-30v-90h30V391z M361,391h-30v-90h30V391z"/>
	</g>
</g>
<g>
</g>
<g>
</g>
<g>
</g>
<g>
</g>
<g>
</g>
<g>
</g>
<g>
</g>
<g>
</g>
<g>
</g>
<g>
</g>
<g>
</g>
<g>
</g>
<g>
</g>
<g>
</g>
<g>
</g>
</svg>
